<svg width="26" height="26" viewBox="0 0 26 26" fill="none" xmlns="http://www.w3.org/2000/svg">
<g clip-path="url(#clip0_559_26)">
<path d="M13 26C5.81994 26 0 20.1801 0 13C0 5.81994 5.81994 0 13 0C20.1801 0 26 5.81994 26 13C26 16.4478 24.6304 19.7544 22.1924 22.1924C19.7544 24.6304 16.4478 26 13 26ZM13 1.625C6.71775 1.625 1.625 6.71775 1.625 13C1.625 19.2822 6.71775 24.375 13 24.375C19.2822 24.375 24.375 19.2822 24.375 13C24.375 9.98316 23.1766 7.08989 21.0433 4.95666C18.9101 2.82343 16.0168 1.625 13 1.625Z" fill="#E5E5E5"/>
<path d="M18.6875 12.1875H13.8125V7.3125H12.1875V12.1875H7.3125V13.8125H12.1875V18.6875H13.8125V13.8125H18.6875V12.1875Z" fill="#E5E5E5"/>
</g>
<defs>
<clipPath id="clip0_559_26">
<rect width="26" height="26" fill="white"/>
</clipPath>
</defs>
</svg>
