<svg width="26" height="26" viewBox="0 0 26 26" fill="none" xmlns="http://www.w3.org/2000/svg">
<path d="M23.4616 16.4905C23.7704 15.7999 22.94 15.2116 22.2461 15.5139C20.6007 16.2294 18.778 16.433 17.0152 16.0984C15.2524 15.7637 13.6311 14.9062 12.3624 13.6375C11.0936 12.3687 10.2362 10.7475 9.90149 8.9847C9.56683 7.22191 9.7705 5.39921 10.486 3.75376C10.7882 3.05988 10.2 2.22951 9.51099 2.53826C7.94632 3.23613 6.57485 4.30407 5.51483 5.65002C4.4548 6.99597 3.73804 8.57954 3.42632 10.2642C3.11461 11.9488 3.21731 13.684 3.72555 15.3202C4.2338 16.9563 5.13235 18.4443 6.34373 19.6558C7.55511 20.8673 9.04297 21.766 10.679 22.2745C12.3151 22.7829 14.0503 22.8858 15.735 22.5743C17.4197 22.2628 19.0033 21.5462 20.3494 20.4863C21.6955 19.4265 22.7636 18.0551 23.4616 16.4905Z" fill="white"/>
</svg>
