<svg width="28" height="28" viewBox="0 0 28 28" fill="none" xmlns="http://www.w3.org/2000/svg">
<path d="M2.33203 14.238C2.33203 11.5675 2.33203 10.2328 2.9387 9.12684C3.54303 8.01968 4.6502 7.33368 6.86336 5.95934L9.1967 4.51151C11.5359 3.05901 12.706 2.33334 13.9987 2.33334C15.2914 2.33334 16.4604 3.05901 18.8007 4.51151L21.134 5.95934C23.3472 7.33368 24.4544 8.01968 25.0599 9.12684C25.6654 10.234 25.6654 11.5675 25.6654 14.2368V16.0125C25.6654 20.5625 25.6654 22.8387 24.298 24.2527C22.9307 25.6667 20.7315 25.6667 16.332 25.6667H11.6654C7.26587 25.6667 5.06553 25.6667 3.69936 24.2527C2.3332 22.8387 2.33203 20.5637 2.33203 16.0125V14.238Z" stroke="#E5E5E5" stroke-width="1.7"/>
<path d="M14 17.5V21" stroke="#E5E5E5" stroke-width="1.7" stroke-linecap="round"/>
</svg>
