<svg width="24" height="24" viewBox="0 0 24 24" fill="none" xmlns="http://www.w3.org/2000/svg">
<g clip-path="url(#clip0_565_10)">
<path d="M16.947 0.056246C17.1814 0.154684 17.3502 0.365621 17.397 0.614059L18.3299 5.67187L23.3877 6.6C23.6361 6.64687 23.847 6.81562 23.9455 7.05C24.0439 7.28437 24.0158 7.55156 23.8705 7.7625L20.9502 12L23.8705 16.2328C24.0158 16.4437 24.0439 16.7109 23.9455 16.9453C23.847 17.1797 23.6361 17.3484 23.3877 17.3953L18.3299 18.3281L17.397 23.3859C17.3502 23.6344 17.1814 23.8453 16.947 23.9437C16.7127 24.0422 16.4455 24.0141 16.2345 23.8687L12.0017 20.9484L7.76892 23.8687C7.55799 24.0141 7.2908 24.0422 7.05642 23.9437C6.82205 23.8453 6.6533 23.6344 6.60642 23.3859L5.67361 18.3281L0.615798 17.3953C0.367361 17.3484 0.156423 17.1797 0.0579855 16.9453C-0.040452 16.7109 -0.012327 16.4437 0.132986 16.2328L3.0533 12L0.132986 7.76718C-0.012327 7.55625 -0.040452 7.28906 0.0579855 7.05468C0.156423 6.82031 0.367361 6.65156 0.615798 6.60468L5.67361 5.67187L6.60642 0.614059C6.6533 0.365621 6.82205 0.154684 7.05642 0.056246C7.2908 -0.0421915 7.55799 -0.0140665 7.76892 0.131246L12.0017 3.05156L16.2345 0.131246C16.4455 -0.0140665 16.7127 -0.0421915 16.947 0.056246ZM7.50174 12C7.50174 10.8065 7.97584 9.66193 8.81975 8.81802C9.66367 7.9741 10.8083 7.5 12.0017 7.5C13.1952 7.5 14.3398 7.9741 15.1837 8.81802C16.0276 9.66193 16.5017 10.8065 16.5017 12C16.5017 13.1935 16.0276 14.3381 15.1837 15.182C14.3398 16.0259 13.1952 16.5 12.0017 16.5C10.8083 16.5 9.66367 16.0259 8.81975 15.182C7.97584 14.3381 7.50174 13.1935 7.50174 12ZM18.0017 12C18.0017 10.4087 17.3696 8.88257 16.2444 7.75735C15.1192 6.63214 13.593 6 12.0017 6C10.4104 6 8.88431 6.63214 7.75909 7.75735C6.63388 8.88257 6.00174 10.4087 6.00174 12C6.00174 13.5913 6.63388 15.1174 7.75909 16.2426C8.88431 17.3679 10.4104 18 12.0017 18C13.593 18 15.1192 17.3679 16.2444 16.2426C17.3696 15.1174 18.0017 13.5913 18.0017 12Z" fill="#E5E5E5"/>
</g>
<defs>
<clipPath id="clip0_565_10">
<rect width="24" height="24" fill="white"/>
</clipPath>
</defs>
</svg>
