<svg width="19" height="18" viewBox="0 0 19 18" fill="none" xmlns="http://www.w3.org/2000/svg">
<path d="M9.861 17.914C8.493 17.914 7.25167 17.6923 6.137 17.249C5.02233 16.8183 4.05967 16.2103 3.249 15.425C2.451 14.6397 1.83033 13.715 1.387 12.651C0.956333 11.587 0.741 10.428 0.741 9.174C0.741 7.93267 0.956333 6.78633 1.387 5.735C1.83033 4.68367 2.45733 3.76533 3.268 2.98C4.07867 2.19467 5.04767 1.58667 6.175 1.156C7.30233 0.725332 8.55633 0.509999 9.937 0.509999C11.267 0.509999 12.483 0.718999 13.585 1.137C14.687 1.54233 15.637 2.11867 16.435 2.866C17.233 3.61333 17.8473 4.49367 18.278 5.507C18.7087 6.50767 18.924 7.60333 18.924 8.794C18.924 9.92133 18.7593 10.884 18.43 11.682C18.1133 12.48 17.6637 13.088 17.081 13.506C16.4983 13.924 15.8143 14.133 15.029 14.133C14.1677 14.133 13.4837 13.8797 12.977 13.373C12.4703 12.8663 12.217 12.1253 12.217 11.15V10.276L12.274 9.25L12.103 6.495V4.671H14.687V10.827C14.687 11.283 14.7757 11.5997 14.953 11.777C15.1303 11.9543 15.3457 12.043 15.599 12.043C15.8903 12.043 16.1373 11.929 16.34 11.701C16.5553 11.473 16.72 11.1247 16.834 10.656C16.948 10.1747 17.005 9.56667 17.005 8.832C17.005 7.86933 16.834 6.989 16.492 6.191C16.1627 5.393 15.6813 4.70267 15.048 4.12C14.4273 3.53733 13.68 3.094 12.806 2.79C11.9447 2.47333 10.9883 2.315 9.937 2.315C8.88567 2.315 7.923 2.486 7.049 2.828C6.175 3.17 5.42767 3.65133 4.807 4.272C4.18633 4.88 3.705 5.602 3.363 6.438C3.03367 7.274 2.869 8.186 2.869 9.174C2.869 10.1873 3.03367 11.1183 3.363 11.967C3.69233 12.803 4.161 13.525 4.769 14.133C5.38967 14.7537 6.13067 15.235 6.992 15.577C7.85333 15.919 8.80967 16.09 9.861 16.09C10.469 16.09 11.096 16.0203 11.742 15.881C12.388 15.7543 13.0087 15.5453 13.604 15.254L14.212 17.002C13.6293 17.2933 12.9453 17.515 12.16 17.667C11.3873 17.8317 10.621 17.914 9.861 17.914ZM9.177 14.133C8.36633 14.133 7.62533 13.9367 6.954 13.544C6.29533 13.1387 5.76967 12.575 5.377 11.853C4.98433 11.1183 4.788 10.276 4.788 9.326C4.788 8.376 4.978 7.54 5.358 6.818C5.75067 6.096 6.27633 5.53867 6.935 5.146C7.60633 4.74067 8.35367 4.538 9.177 4.538C10.013 4.538 10.7287 4.728 11.324 5.108C11.9193 5.488 12.3753 6.03267 12.692 6.742C13.0087 7.45133 13.167 8.31267 13.167 9.326C13.167 10.3267 13.015 11.188 12.711 11.91C12.407 12.632 11.9573 13.183 11.362 13.563C10.7793 13.943 10.051 14.133 9.177 14.133ZM9.766 11.948C10.222 11.948 10.6273 11.8467 10.982 11.644C11.3493 11.4287 11.6343 11.1247 11.837 10.732C12.0397 10.3393 12.141 9.87067 12.141 9.326C12.141 8.76867 12.0397 8.3 11.837 7.92C11.6343 7.54 11.3493 7.24867 10.982 7.046C10.6273 6.84333 10.222 6.742 9.766 6.742C9.31 6.742 8.90467 6.84333 8.55 7.046C8.19533 7.24867 7.91667 7.54633 7.714 7.939C7.51133 8.319 7.41 8.78133 7.41 9.326C7.41 9.87067 7.51133 10.3393 7.714 10.732C7.91667 11.112 8.19533 11.4097 8.55 11.625C8.90467 11.8403 9.31 11.948 9.766 11.948Z" fill="#E5E5E5"/>
</svg>
