<svg width="23" height="25" viewBox="0 0 23 25" fill="none" xmlns="http://www.w3.org/2000/svg">
<path d="M16.08 10.0102V7.15399C16.1065 5.7071 15.6008 4.30777 14.6735 3.2622C13.7462 2.21663 12.4727 1.60996 11.1318 1.57495C9.79094 1.60996 8.5175 2.21663 7.59017 3.2622C6.66283 4.30777 6.15712 5.7071 6.18368 7.15399V10.0102H4.32812V21.3552C4.32813 21.7092 4.45846 22.0487 4.69044 22.299C4.92243 22.5493 5.23708 22.6899 5.56516 22.6899H16.6985C17.0266 22.6899 17.3412 22.5493 17.5732 22.299C17.8052 22.0487 17.9355 21.7092 17.9355 21.3552V10.0102H16.08ZM11.7503 16.8372V18.6858H10.5133V16.7772C10.2122 16.61 9.97309 16.3368 9.83569 16.0028C9.6983 15.6688 9.67087 15.2942 9.75796 14.9411C9.84505 14.588 10.0414 14.2777 10.3145 14.0615C10.5876 13.8454 10.9209 13.7365 11.2592 13.753C11.5975 13.7694 11.9205 13.9101 12.1744 14.1518C12.4284 14.3935 12.5981 14.7217 12.6555 15.0818C12.7128 15.4419 12.6543 15.8123 12.4897 16.1316C12.3251 16.4509 12.0642 16.6999 11.7503 16.8372ZM14.8429 10.0102H7.42072V7.15399C7.39405 6.06103 7.76941 5.00111 8.46479 4.20583C9.16016 3.41054 10.119 2.94454 11.1318 2.90965C12.1447 2.94454 13.1035 3.41054 13.7989 4.20583C14.4942 5.00111 14.8696 6.06103 14.8429 7.15399V10.0102Z" fill="#E5E5E5"/>
</svg>
