<svg width="25" height="25" viewBox="0 0 25 25" fill="none" xmlns="http://www.w3.org/2000/svg">
<path d="M6.94434 14.7393H18.0557C19.6719 14.7393 21.2223 15.3806 22.3652 16.5234C23.5081 17.6663 24.1503 19.2168 24.1504 20.833C24.1504 21.7126 23.8007 22.5567 23.1787 23.1787C22.5567 23.8007 21.7126 24.1504 20.833 24.1504H4.16699C3.28736 24.1504 2.44328 23.8007 1.82129 23.1787C1.19929 22.5567 0.849609 21.7126 0.849609 20.833C0.849695 19.2168 1.49191 17.6663 2.63477 16.5234C3.77766 15.3806 5.32808 14.7393 6.94434 14.7393ZM12.5 0.849609C13.748 0.849609 14.9447 1.34605 15.8271 2.22852C16.7096 3.11097 17.2051 4.3077 17.2051 5.55566C17.205 6.80362 16.7096 8.00037 15.8271 8.88281C14.9447 9.76524 13.748 10.2607 12.5 10.2607C11.252 10.2607 10.0553 9.76524 9.17285 8.88281C8.29041 8.00037 7.79495 6.80362 7.79492 5.55566C7.79492 4.3077 8.29042 3.11097 9.17285 2.22852C10.0553 1.34605 11.252 0.849609 12.5 0.849609Z" fill="#E5E5E5" stroke="#E5E5E5" stroke-width="1.7"/>
</svg>
