<svg width="26" height="26" viewBox="0 0 26 26" fill="none" xmlns="http://www.w3.org/2000/svg">
<path d="M6.50629 9.74999H21.6058L22.1475 7.58332H8.67296V5.41666H23.5363C23.701 5.41666 23.8635 5.45421 24.0115 5.52644C24.1594 5.59867 24.289 5.70369 24.3903 5.83351C24.4916 5.96333 24.562 6.11454 24.5961 6.27564C24.6302 6.43675 24.6271 6.6035 24.5871 6.76324L21.8788 17.5966C21.8201 17.8308 21.6848 18.0388 21.4944 18.1874C21.304 18.3359 21.0695 18.4167 20.828 18.4167H5.42188C5.13456 18.4167 4.85901 18.3025 4.65584 18.0994C4.45268 17.8962 4.33854 17.6206 4.33854 17.3333V4.33332H2.17188V2.16666H5.42188C5.70919 2.16666 5.98474 2.28079 6.18791 2.48396C6.39107 2.68712 6.50521 2.96267 6.50521 3.24999L6.50629 9.74999ZM6.50629 24.9167C5.93166 24.9167 5.38056 24.6884 4.97423 24.2821C4.5679 23.8757 4.33963 23.3246 4.33963 22.75C4.33963 22.1754 4.5679 21.6243 4.97423 21.2179C5.38056 20.8116 5.93166 20.5833 6.50629 20.5833C7.08093 20.5833 7.63203 20.8116 8.03836 21.2179C8.44469 21.6243 8.67296 22.1754 8.67296 22.75C8.67296 23.3246 8.44469 23.8757 8.03836 24.2821C7.63203 24.6884 7.08093 24.9167 6.50629 24.9167ZM19.5063 24.9167C18.9317 24.9167 18.3806 24.6884 17.9742 24.2821C17.5679 23.8757 17.3396 23.3246 17.3396 22.75C17.3396 22.1754 17.5679 21.6243 17.9742 21.2179C18.3806 20.8116 18.9317 20.5833 19.5063 20.5833C20.0809 20.5833 20.632 20.8116 21.0384 21.2179C21.4447 21.6243 21.673 22.1754 21.673 22.75C21.673 23.3246 21.4447 23.8757 21.0384 24.2821C20.632 24.6884 20.0809 24.9167 19.5063 24.9167Z" fill="#E5E5E5"/>
</svg>
